<?xml version="1.0" encoding="UTF-8" standalone="no"?>
<!-- Generator: Adobe Illustrator 21.1.0, SVG Export Plug-In . SVG Version: 6.00 Build 0)  -->

<svg
   xmlns:dc="http://purl.org/dc/elements/1.1/"
   xmlns:cc="http://creativecommons.org/ns#"
   xmlns:rdf="http://www.w3.org/1999/02/22-rdf-syntax-ns#"
   xmlns:svg="http://www.w3.org/2000/svg"
   xmlns="http://www.w3.org/2000/svg"
   xmlns:sodipodi="http://sodipodi.sourceforge.net/DTD/sodipodi-0.dtd"
   xmlns:inkscape="http://www.inkscape.org/namespaces/inkscape"
   version="1.1"
   id="Layer_1"
   x="0px"
   y="0px"
   viewBox="0 0 1260 480"
   xml:space="preserve"
   inkscape:version="0.91 r13725"
   sodipodi:docname="neblio_horizontal.svg"
   width="1260"
   height="480"><metadata
     id="metadata3745"><rdf:RDF><cc:Work
         rdf:about=""><dc:format>image/svg+xml</dc:format><dc:type
           rdf:resource="http://purl.org/dc/dcmitype/StillImage" /><dc:title></dc:title></cc:Work></rdf:RDF></metadata><defs
     id="defs3743" /><sodipodi:namedview
     pagecolor="#ffffff"
     bordercolor="#666666"
     borderopacity="1"
     objecttolerance="10"
     gridtolerance="10"
     guidetolerance="10"
     inkscape:pageopacity="0"
     inkscape:pageshadow="2"
     inkscape:window-width="3070"
     inkscape:window-height="1752"
     id="namedview3741"
     showgrid="false"
     inkscape:zoom="1.94"
     inkscape:cx="407.84337"
     inkscape:cy="300"
     inkscape:window-x="130"
     inkscape:window-y="48"
     inkscape:window-maximized="1"
     inkscape:current-layer="Layer_1" /><style
     type="text/css"
     id="style3706">
	.st0{display:none;fill:#1CABE2;}
	.st1{fill:#008CCD;}
	.st2{fill:#5083C3;}
	.st3{display:none;fill:#468FCD;}
	.st4{display:none;fill:#44579A;}
	.st5{display:none;fill:#4E63AE;}
	.st6{fill:#5C6DB3;}
	.st7{fill:#00A7E2;}
	.st8{fill:#597EBF;}
	.st9{fill:#6162AC;}
	.st10{display:none;fill:#0073BB;}
	.st11{fill:#0063A1;}
	.st12{fill:#1CABE2;}
	.st13{fill:#00A2DD;}
	.st14{fill:#33ACE3;}
	.st15{fill:#8485C0;}
	.st16{fill:#5A72B7;}
	.st17{fill:#5E69B0;}
	.st18{fill:#5974B9;}
	.st19{fill:#008FD0;}
	.st20{fill:#24ABE2;}
	.st21{fill:#389CD7;}
	.st22{fill:#2098D5;}
	.st23{fill:#6497D0;}
	.st24{fill:#4278BC;}
	.st25{fill:#657CBD;}
	.st26{fill:#FFFFFF;}
	.st27{font-family:'MyriadPro-Regular';}
	.st28{font-size:266.1947px;}
	.st29{fill:none;}
	.st30{fill:#373737;}
	.st31{font-size:254px;}
</style><g
     id="XMLID_33_"
     transform="translate(-8,-50)"><polygon
       id="XMLID_28_"
       class="st0"
       points="15,291.4 14.8,291.3 14.8,291.5 "
       style="display:none;fill:#1cabe2" /><path
       id="XMLID_27_"
       class="st1"
       d="m 118.8,235.2 0,-9.2 -94.5,-51.2 c -6.1,10 -9.5,21.4 -9.5,33.3 l 0,83.2 0.2,0.1 103.8,-56.2 z"
       inkscape:connector-curvature="0"
       style="fill:#008ccd" /><polygon
       id="XMLID_26_"
       class="st2"
       points="118.8,235.2 15,291.4 118.8,347.7 "
       style="fill:#5083c3" /><polygon
       id="XMLID_25_"
       class="st3"
       points="137,236.1 137,346.7 137.1,346.8 239.4,291.4 137.1,236 "
       style="display:none;fill:#468fcd" /><polygon
       id="XMLID_24_"
       class="st4"
       points="239.4,291.4 239.4,180.6 137.1,236 "
       style="display:none;fill:#44579a" /><polygon
       id="XMLID_23_"
       class="st5"
       points="239.4,180.6 239.4,291.4 340.6,236.5 340.6,235.4 "
       style="display:none;fill:#4e63ae" /><path
       id="XMLID_22_"
       class="st6"
       d="m 452.6,175.9 -92.5,50.1 0,9.1 101.4,55 0,-82 c 0,-11.5 -3.2,-22.5 -8.9,-32.2 z"
       inkscape:connector-curvature="0"
       style="fill:#5c6db3" /><path
       id="XMLID_21_"
       class="st7"
       d="m 118.8,352.1 0,-4.5 -103.8,-56.2 -0.2,0.1 0,81.9 c 0,12.3 3.6,24.1 10.2,34.3 l 94,-51 -0.2,-4.6 z"
       inkscape:connector-curvature="0"
       style="fill:#00a7e2" /><polygon
       id="XMLID_20_"
       class="st8"
       points="248.7,164.8 350.6,220 350.6,109.5 "
       style="fill:#597ebf" /><path
       id="XMLID_19_"
       class="st9"
       d="m 360.1,225.2 0,0.8 92.5,-50.1 c -6.1,-10.4 -15.2,-19.2 -26.5,-25.4 l -75.5,-40.9 0,110.4 9.5,5.2 z"
       inkscape:connector-curvature="0"
       style="fill:#6162ac" /><polygon
       id="XMLID_18_"
       class="st10"
       points="239.4,402.3 239.4,291.4 137.1,346.8 239.4,402.3 "
       style="display:none;fill:#0073bb" /><polygon
       id="XMLID_17_"
       class="st11"
       points="340.6,346.3 239.4,291.4 239.4,402.3 340.6,347.4 "
       style="fill:#0063a1" /><polygon
       id="XMLID_16_"
       class="st12"
       points="127.1,109.1 127.2,108.9 127.1,108.8 "
       style="fill:#1cabe2" /><polygon
       id="XMLID_15_"
       class="st13"
       points="128.3,473.3 230.9,417.7 127.1,361.4 127.1,472.7 "
       style="fill:#00a2dd" /><path
       id="XMLID_14_"
       class="st14"
       d="m 119,357.1 0,-0.3 -94,51 c 6.1,9.5 14.7,17.6 25.3,23.3 l 76.8,41.6 0,-111.3 -8.1,-4.3 z"
       inkscape:connector-curvature="0"
       style="fill:#33ace3" /><path
       id="XMLID_13_"
       class="st15"
       d="m 240.1,160.1 8.6,4.6 101.9,-55.2 -77,-41.7 C 263,62.1 251.3,59.1 239.5,58.9 l 0,101.5 0.6,-0.3 z"
       inkscape:connector-curvature="0"
       style="fill:#8485c0" /><path
       id="XMLID_12_"
       class="st16"
       d="m 230.9,165.1 8.6,-4.6 0,-101.5 c -11,-0.2 -22,2 -32.2,6.6 l -80,43.4 103.6,56.1 z"
       inkscape:connector-curvature="0"
       style="fill:#5a72b7" /><polygon
       id="XMLID_11_"
       class="st17"
       points="127.1,221.4 230.9,165.1 127.2,108.9 127.1,109.1 "
       style="fill:#5e69b0" /><path
       id="XMLID_10_"
       class="st18"
       d="m 118.8,225.9 4.4,-2.4 3.8,-2.1 0,-112.3 -81.1,44 c -9,5.7 -16.3,13.2 -21.6,21.8 l 94.5,51.2 0,-0.2 z"
       inkscape:connector-curvature="0"
       style="fill:#5974b9" /><path
       id="XMLID_9_"
       class="st19"
       d="m 240.1,422.7 -0.7,-0.4 0,100.2 c 11.8,-0.2 23.6,-3.1 34.1,-8.9 l 75.8,-41.1 -100.6,-54.5 -8.6,4.7 z"
       inkscape:connector-curvature="0"
       style="fill:#008fd0" /><path
       id="XMLID_8_"
       class="st20"
       d="m 230.9,417.7 -102.6,55.6 74.5,40.4 c 11.3,6.2 24.1,9.1 36.7,8.9 l 0,-100.3 -8.6,-4.6 z"
       inkscape:connector-curvature="0"
       style="fill:#24abe2" /><polygon
       id="XMLID_7_"
       class="st21"
       points="350.6,472 350.6,362.8 248.7,418 349.3,472.6 "
       style="fill:#389cd7" /><path
       id="XMLID_6_"
       class="st22"
       d="m 360.1,357.6 -9.5,5.2 0,109.2 75.5,-40.9 c 11,-5.9 19.8,-14.4 26,-24.4 l -91.9,-49.8 0,0.7 z"
       inkscape:connector-curvature="0"
       style="fill:#2098d5" /><path
       id="XMLID_5_"
       class="st23"
       d="m 360.1,356.8 91.9,49.8 c 6.1,-9.9 9.5,-21.4 9.5,-33.2 l 0,-80.7 -101.4,55 0,9.1 z"
       inkscape:connector-curvature="0"
       style="fill:#6497d0" /><polygon
       id="XMLID_4_"
       class="st24"
       points="461.5,290.1 360.1,235.2 360.1,347.7 461.5,292.7 "
       style="fill:#4278bc" /><polygon
       id="XMLID_3_"
       class="st25"
       points="239.4,291.4 340.6,346.3 340.6,236.5 "
       style="fill:#657cbd" /></g><text
     class="st26 st27 st28"
     id="text3735"
     style="font-size:266.19470215px;font-family:MyriadPro-Regular;fill:#ffffff"
     x="452.13708"
     y="350.21701">neblio</text>
<line
     class="st29"
     x1="677.59998"
     y1="181.5"
     x2="992.59998"
     y2="181.5"
     id="line3737"
     style="fill:none" /></svg>