<svg xmlns="http://www.w3.org/2000/svg" width="1930" height="2000" viewBox="0 0 1930 2000"><path d="M484.34,760.2V720.73L76.1,499.78A273.11,273.11,0,0,0,35,643.41v358.87l1,.55Z" transform="translate(-35)" fill="#3377b5"/><path fill="#4f6cb0" d="m1.01 1002.84l448.33 242.63v-485.26l-448.33 242.63"/><g transform="translate(-35)"><path d="M1926.54,504.42,1526.87,720.73v39.47L1965,997.32V643.41c0-49.49-13.71-97.12-38.45-139" fill="#504ca1"/><path d="M484.34,1264.75v-19.27L36,1002.85l-1,.55v353.18c0,53,15.7,103.9,43.87,147.81l406.26-219.87Z" fill="#3b9cc7"/></g><path fill="#5465ad" d="m1450.63 694.78v-476.49l-440.2 238.24 440.2 238.25"/><path d="m1526.87 717.09v3.63l399.67-216.31c-26.49-44.83-65.63-83-114.62-109.54l-326.29-176.58v476.49" transform="translate(-35)" fill="#513d9a"/><path fill="#214688" d="m970.36 1481.08l437.48-236.77v-4.7l-437.48-236.77v478.24"/><path fill="#4395c4" d="m484.96 1304.83v479.89l5.27 2.85 443.36-239.94-448.63-242.8"/><g transform="translate(-35)"><path d="M485.19,1286l-.05-1.48L78.88,1504.38c26.3,41,63.45,76,109.18,100.72L520,1784.72V1304.83Z" fill="#54a4cb"/><path d="M1008.41,436.51l37,20,440.19-238.25-332.57-180A321.24,321.24,0,0,0,1005.61,0V438Z" fill="#7f6fb3"/><path d="M968.59,458.05l37-20V0A323.21,323.21,0,0,0,866.47,28.64L520.81,215.72Z" fill="#5054a4"/></g><path fill="#50479e" d="m485.81 215.72l-.86.45v484.68l448.63-242.8-447.77-242.33"/><g transform="translate(-35)"><path d="M484.34,720.26l19-10.44,16.56-9V216.18L169.35,405.94A295.18,295.18,0,0,0,76.1,499.79L484.34,720.73Z" fill="#5057a6"/><path d="M1008.41,1569.18l-2.8-1.51V2000a321.42,321.42,0,0,0,147.45-38.29l327.32-177.14-434.95-235.39Z" fill="#2c7ab6"/><path d="m968.59 1547.62l-443.36 240 321.68 174.11a322 322 0 0 0 158.69 38.27v-432.34" fill="#4fa2ca"/></g><path fill="#4d8dc0" d="m1010.43 1549.14l434.95 235.39 5.25-2.85v-470.77l-440.2 238.23"/><g transform="translate(-35)"><path d="m1526.87 1288.58l-41.23 22.32v470.78l326.28-176.59c47.42-25.66 85.7-62.22 112.15-105.18l-397.2-215" fill="#4488be"/><path d="m1526.87 1284.94l397.2 215a273.07 273.07 0 0 0 40.93 -143.37v-348.21l-438.13 237.12" fill="#6687be"/></g><path fill="#415ca8" d="m1491.87 1245.48l438.13-237.12v-11.04l-438.13-237.13v485.29"/><path fill="#5d62ac" d="m1407.83 1239.61v-473.53l-437.48 236.76 437.48 236.77"/></svg>