<?xml version="1.0" encoding="UTF-8" standalone="no"?>
<!-- Generator: Adobe Illustrator 21.1.0, SVG Export Plug-In . SVG Version: 6.00 Build 0)  -->

<svg
   xmlns:dc="http://purl.org/dc/elements/1.1/"
   xmlns:cc="http://creativecommons.org/ns#"
   xmlns:rdf="http://www.w3.org/1999/02/22-rdf-syntax-ns#"
   xmlns:svg="http://www.w3.org/2000/svg"
   xmlns="http://www.w3.org/2000/svg"
   xmlns:sodipodi="http://sodipodi.sourceforge.net/DTD/sodipodi-0.dtd"
   xmlns:inkscape="http://www.inkscape.org/namespaces/inkscape"
   version="1.1"
   id="Layer_1"
   x="0px"
   y="0px"
   viewBox="0 0 650 760"
   xml:space="preserve"
   inkscape:version="0.91 r13725"
   sodipodi:docname="neblio_vertical.svg"
   width="650"
   height="760"
   inkscape:export-filename="/home/samer/neblio/neblio/src/qt/res/images/neblio_vertical.png"
   inkscape:export-xdpi="180"
   inkscape:export-ydpi="180"><metadata
     id="metadata3467"><rdf:RDF><cc:Work
         rdf:about=""><dc:format>image/svg+xml</dc:format><dc:type
           rdf:resource="http://purl.org/dc/dcmitype/StillImage" /><dc:title /></cc:Work></rdf:RDF></metadata><defs
     id="defs3465" /><sodipodi:namedview
     pagecolor="#ffffff"
     bordercolor="#666666"
     borderopacity="1"
     objecttolerance="10"
     gridtolerance="10"
     guidetolerance="10"
     inkscape:pageopacity="0"
     inkscape:pageshadow="2"
     inkscape:window-width="3070"
     inkscape:window-height="1752"
     id="namedview3463"
     showgrid="false"
     inkscape:zoom="1.95"
     inkscape:cx="108.71794"
     inkscape:cy="362.66275"
     inkscape:window-x="130"
     inkscape:window-y="48"
     inkscape:window-maximized="1"
     inkscape:current-layer="Layer_1" /><style
     type="text/css"
     id="style3430">
	.st0{display:none;fill:#1CABE2;}
	.st1{fill:#008CCD;}
	.st2{fill:#5083C3;}
	.st3{display:none;fill:#468FCD;}
	.st4{display:none;fill:#44579A;}
	.st5{display:none;fill:#4E63AE;}
	.st6{fill:#5C6DB3;}
	.st7{fill:#00A7E2;}
	.st8{fill:#597EBF;}
	.st9{fill:#6162AC;}
	.st10{display:none;fill:#0073BB;}
	.st11{fill:#0063A1;}
	.st12{fill:#1CABE2;}
	.st13{fill:#00A2DD;}
	.st14{fill:#33ACE3;}
	.st15{fill:#8485C0;}
	.st16{fill:#5A72B7;}
	.st17{fill:#5E69B0;}
	.st18{fill:#5974B9;}
	.st19{fill:#008FD0;}
	.st20{fill:#24ABE2;}
	.st21{fill:#389CD7;}
	.st22{fill:#2098D5;}
	.st23{fill:#6497D0;}
	.st24{fill:#4278BC;}
	.st25{fill:#657CBD;}
	.st26{fill:#373737;}
	.st27{font-family:'MyriadPro-Regular';}
	.st28{font-size:205.5345px;}
</style><g
     id="XMLID_33_"
     transform="translate(-60.4,-24)"><polygon
       id="XMLID_28_"
       class="st0"
       points="131.7,324 131.5,323.9 131.5,324.2 "
       style="display:none;fill:#1cabe2" /><path
       id="XMLID_27_"
       class="st1"
       d="m 249.7,260.1 0,-10.4 -107.4,-58.2 c -7,11.3 -10.8,24.3 -10.8,37.9 l 0,94.6 0.3,0.1 117.9,-64 z"
       inkscape:connector-curvature="0"
       style="fill:#008ccd" /><polygon
       id="XMLID_26_"
       class="st2"
       points="249.7,260.1 131.7,324 249.7,388 "
       style="fill:#5083c3" /><polygon
       id="XMLID_25_"
       class="st3"
       points="270.6,261 270.4,261.1 270.4,386.9 270.6,387.1 386.8,324 "
       style="display:none;fill:#468fcd" /><polygon
       id="XMLID_24_"
       class="st4"
       points="386.8,324 386.8,198 270.6,261 "
       style="display:none;fill:#44579a" /><polygon
       id="XMLID_23_"
       class="st5"
       points="502,261.6 502,260.4 386.8,198 386.8,324 "
       style="display:none;fill:#4e63ae" /><path
       id="XMLID_22_"
       class="st6"
       d="m 629.3,192.6 -105.2,57 0,10.4 115.3,62.5 0,-93.3 c 0,-13 -3.6,-25.5 -10.1,-36.6 z"
       inkscape:connector-curvature="0"
       style="fill:#5c6db3" /><path
       id="XMLID_21_"
       class="st7"
       d="m 249.7,393.1 0,-5.1 -118,-64 -0.3,0.1 0,93.1 c 0,14 4.1,27.4 11.5,39 l 106.9,-58 -0.1,-5.1 z"
       inkscape:connector-curvature="0"
       style="fill:#00a7e2" /><polygon
       id="XMLID_20_"
       class="st8"
       points="397.4,180 513.2,242.8 513.2,117.2 "
       style="fill:#597ebf" /><path
       id="XMLID_19_"
       class="st9"
       d="m 524.1,248.7 0,1 105.2,-57 c -7,-11.8 -17.3,-21.9 -30.2,-28.9 l -85.9,-46.5 0,125.6 10.9,5.8 z"
       inkscape:connector-curvature="0"
       style="fill:#6162ac" /><polygon
       id="XMLID_18_"
       class="st10"
       points="270.6,387.1 386.8,450.1 386.8,450.1 386.8,324 "
       style="display:none;fill:#0073bb" /><polygon
       id="XMLID_17_"
       class="st11"
       points="386.8,450.1 502,387.7 502,386.4 386.8,324 "
       style="fill:#0063a1" /><polygon
       id="XMLID_16_"
       class="st12"
       points="259.1,116.7 259.3,116.5 259.1,116.4 "
       style="fill:#1cabe2" /><polygon
       id="XMLID_15_"
       class="st13"
       points="259.1,403.6 259.1,530.1 260.5,530.9 377.2,467.6 "
       style="fill:#00a2dd" /><path
       id="XMLID_14_"
       class="st14"
       d="m 249.9,398.7 0,-0.4 -106.9,58 c 6.9,10.8 16.7,20 28.7,26.5 l 87.3,47.3 0,-126.5 -9.1,-4.9 z"
       inkscape:connector-curvature="0"
       style="fill:#33ace3" /><path
       id="XMLID_13_"
       class="st15"
       d="m 387.6,174.7 9.7,5.3 115.9,-62.8 -87.5,-47.4 c -12,-6.5 -25.4,-9.9 -38.8,-10.1 l 0,115.5 0.7,-0.5 z"
       inkscape:connector-curvature="0"
       style="fill:#8485c0" /><path
       id="XMLID_12_"
       class="st16"
       d="m 377.2,180.4 9.7,-5.3 0,-115.4 c -12.5,-0.2 -25.1,2.3 -36.6,7.5 l -91,49.3 117.9,63.9 z"
       inkscape:connector-curvature="0"
       style="fill:#5a72b7" /><polygon
       id="XMLID_11_"
       class="st17"
       points="259.3,116.5 259.1,116.7 259.1,244.4 377.2,180.4 "
       style="fill:#5e69b0" /><path
       id="XMLID_10_"
       class="st18"
       d="m 249.7,249.5 5,-2.8 4.4,-2.4 0,-127.6 -92.3,50 c -10.2,6.5 -18.5,15 -24.5,24.7 l 107.4,58.2 0,-0.1 z"
       inkscape:connector-curvature="0"
       style="fill:#5974b9" /><path
       id="XMLID_9_"
       class="st19"
       d="m 387.6,473.3 -0.7,-0.4 0,114 c 13.4,-0.2 26.8,-3.6 38.8,-10.1 l 86.1,-46.7 -114.5,-62 -9.7,5.2 z"
       inkscape:connector-curvature="0"
       style="fill:#008fd0" /><path
       id="XMLID_8_"
       class="st20"
       d="m 377.2,467.6 -116.7,63.2 84.7,45.9 c 12.9,7 27.4,10.3 41.8,10.1 l 0,-114 -9.8,-5.2 z"
       inkscape:connector-curvature="0"
       style="fill:#24abe2" /><polygon
       id="XMLID_7_"
       class="st21"
       points="397.4,468 511.9,530.1 513.2,529.3 513.2,405.2 "
       style="fill:#389cd7" /><path
       id="XMLID_6_"
       class="st22"
       d="m 524.1,399.3 -10.9,5.9 0,124.1 85.9,-46.5 c 12.5,-6.8 22.6,-16.4 29.5,-27.7 l -104.5,-56.7 0,0.9 z"
       inkscape:connector-curvature="0"
       style="fill:#2098d5" /><path
       id="XMLID_5_"
       class="st23"
       d="M 524.1,398.4 628.6,455 c 6.9,-11.3 10.8,-24.3 10.8,-37.8 l 0,-91.8 -115.3,62.6 0,10.4 z"
       inkscape:connector-curvature="0"
       style="fill:#6497d0" /><polygon
       id="XMLID_4_"
       class="st24"
       points="524.1,388 639.4,325.5 639.4,322.6 524.1,260.1 "
       style="fill:#4278bc" /><polygon
       id="XMLID_3_"
       class="st25"
       points="386.8,324 502,386.4 502,261.6 "
       style="fill:#657cbd" /></g><g
     id="g3459"
     transform="translate(-72,-24)" /><text
     class="st26 st27 st28"
     id="text3461"
     x="7.7161484"
     y="734.17432"
     style="font-size:205.53450012px;font-family:MyriadPro-Regular;fill:#373737">neblio</text>
</svg>