<svg xmlns="http://www.w3.org/2000/svg" viewBox="0 0 228.49 256.8"><defs><style>.cls-1{fill:#4f88ce;}.cls-2{fill:#3ba3d0;}.cls-3{fill:#4891cf;}.cls-4{fill:#19ced4;}.cls-5{fill:#6b65cb;}.cls-6{fill:#1fc6d3;}.cls-7{fill:#715dca;}.cls-8{fill:#429acf;}.cls-9{fill:#7854ca;}.cls-10{fill:#7f4bc9;}.cls-11{fill:#646ecc;}.cls-12{fill:#5680cd;}.cls-13{fill:#2db4d1;}.cls-14{fill:#12d7d4;}.cls-15{fill:#0be0d5;}.cls-16{fill:#26bdd2;}.cls-17{fill:#34abd1;}.cls-18{fill:#5d77cd;}</style></defs><title>Mark_Color</title><g id="Layer_2" data-name="Layer 2"><g id="Layer_1-2" data-name="Layer 1"><polygon class="cls-1" points="114.25 184.94 163.21 156.67 163.21 100.13 114.25 128.4 114.25 184.94"/><path class="cls-1" d="M225.44,64.2a22.71,22.71,0,0,0-8.33-8.33L171.37,29.46,125.62,3.05a22.74,22.74,0,0,0-22.75,0L57.12,29.46h0l-34.57,20L11.38,55.87A22.76,22.76,0,0,0,0,75.57V128.4H0v52.83a22.76,22.76,0,0,0,11.38,19.7l45.74,26.41h0l45.75,26.41a22.74,22.74,0,0,0,22.75,0l45.75-26.41,45.74-26.41a22.76,22.76,0,0,0,11.38-19.71V128.4h0V75.58A22.67,22.67,0,0,0,225.44,64.2Zm-54.07,70.1v27.08l-57.12,33-57.13-33h0v-66l47.3-27.31,9.83-5.67,57.12,33Z"/><polygon class="cls-2" points="163.21 100.13 163.21 156.67 114.25 128.4 163.21 100.13"/><polygon class="cls-3" points="163.21 156.67 114.25 184.94 114.25 128.4 163.21 156.67"/><polygon class="cls-4" points="171.37 95.42 171.37 161.38 228.49 128.4 171.37 95.42"/><polygon class="cls-3" points="57.12 161.38 57.12 227.34 114.25 194.36 57.12 161.38"/><polygon class="cls-5" points="57.12 29.46 57.12 95.42 114.25 62.44 57.12 29.46"/><polygon class="cls-6" points="171.37 161.38 114.25 194.36 171.37 227.34 171.37 161.38"/><polygon class="cls-7" points="57.12 95.42 0 128.4 57.12 161.38 57.12 95.42"/><polygon class="cls-8" points="171.37 29.46 114.25 62.44 171.37 95.42 171.37 29.46"/><path class="cls-9" d="M57.12,29.46l-34.57,20L11.38,55.87A22.71,22.71,0,0,0,3.05,64.2L57.12,95.42Z"/><path class="cls-10" d="M57.12,95.42,3.05,64.2A22.66,22.66,0,0,0,0,75.57V128.4Z"/><path class="cls-11" d="M0,128.4v52.83A22.66,22.66,0,0,0,3.05,192.6l54.07-31.22Z"/><path class="cls-12" d="M57.12,161.38,3.05,192.6a22.79,22.79,0,0,0,8.33,8.33l45.74,26.41Z"/><path class="cls-2" d="M57.12,227.34l45.75,26.41a22.77,22.77,0,0,0,11.38,3.05V194.36Z"/><path class="cls-13" d="M114.25,256.8a22.76,22.76,0,0,0,11.37-3.05l45.75-26.41-57.12-33Z"/><path class="cls-14" d="M171.37,161.38v66l45.74-26.41a22.79,22.79,0,0,0,8.33-8.33Z"/><path class="cls-15" d="M225.44,192.6a22.67,22.67,0,0,0,3.05-11.38V128.4l-57.12,33Z"/><path class="cls-16" d="M228.49,128.4V75.58a22.67,22.67,0,0,0-3.05-11.38L171.37,95.42Z"/><path class="cls-17" d="M225.44,64.2a22.71,22.71,0,0,0-8.33-8.33L171.37,29.46v66Z"/><path class="cls-1" d="M171.37,29.46,125.62,3.05a22.76,22.76,0,0,0-11.37-3V62.44Z"/><path class="cls-18" d="M114.25,62.44V0a22.77,22.77,0,0,0-11.38,3.05L57.12,29.46Z"/></g></g></svg>